<svg xmlns="http://www.w3.org/2000/svg" xmlns:xlink="http://www.w3.org/1999/xlink" width="512" zoomAndPan="magnify" viewBox="0 0 384 383.999986" height="512" preserveAspectRatio="xMidYMid meet" version="1.0"><path fill="#09244b" d="M 192 32 C 280.363281 32 352 103.632812 352 192 C 352 280.363281 280.363281 352 192 352 C 103.632812 352 32 280.363281 32 192 C 32 103.632812 103.632812 32 192 32 Z M 240 96 C 235.210938 96 230.914062 98.105469 227.980469 101.4375 L 201.570312 96.15625 C 199.414062 95.722656 197.175781 96.199219 195.378906 97.46875 C 193.585938 98.738281 192.390625 100.691406 192.078125 102.867188 L 186.1875 144.128906 C 163.429688 145.132812 142.371094 152.015625 126.257812 163.292969 C 123.179688 165.449219 120.246094 167.792969 117.503906 170.320312 C 114.382812 168.832031 110.886719 168 107.199219 168 C 93.945312 168 83.199219 178.746094 83.199219 192 C 83.199219 201.238281 88.417969 209.253906 96.066406 213.265625 L 96 216 C 96 238.117188 108.828125 256.503906 126.257812 268.707031 C 143.734375 280.941406 167.027344 288 192 288 C 216.972656 288 240.265625 280.941406 257.742188 268.707031 C 275.171875 256.503906 288 238.117188 288 216 L 287.933594 213.265625 C 295.582031 209.253906 300.800781 201.238281 300.800781 192 C 300.800781 178.746094 290.054688 168 276.800781 168 C 273.113281 168 269.617188 168.832031 266.496094 170.320312 C 263.753906 167.792969 260.820312 165.449219 257.742188 163.292969 C 242.695312 152.761719 223.335938 146.0625 202.308594 144.40625 L 206.722656 113.503906 L 224.839844 117.125 C 226.976562 123.449219 232.957031 128 240 128 C 248.835938 128 256 120.835938 256 112 C 256 103.164062 248.835938 96 240 96 Z M 152 192 C 165.253906 192 176 202.746094 176 216 C 176 229.253906 165.253906 240 152 240 C 138.746094 240 128 229.253906 128 216 C 128 202.746094 138.746094 192 152 192 Z M 232 192 C 245.253906 192 256 202.746094 256 216 C 256 229.253906 245.253906 240 232 240 C 218.746094 240 208 229.253906 208 216 C 208 202.746094 218.746094 192 232 192 Z M 232 192 " fill-opacity="1" fill-rule="nonzero"/></svg>